<svg id="Layer_1" data-name="Layer 1" xmlns="http://www.w3.org/2000/svg" xmlns:xlink="http://www.w3.org/1999/xlink" viewBox="0 0 531.5 150"><defs><style>.cls-1{fill:none;}.cls-2{fill:url(#linear-gradient);}.cls-3{fill:url(#linear-gradient-2);}.cls-4{fill:url(#linear-gradient-3);}.cls-5{fill:url(#linear-gradient-4);}.cls-6{fill:#303030;}</style><linearGradient id="linear-gradient" x1="117.09" y1="26.45" x2="31.47" y2="26.45" gradientUnits="userSpaceOnUse"><stop offset="0" stop-color="#2d4bff"/><stop offset="1" stop-color="#058ae5"/></linearGradient><linearGradient id="linear-gradient-2" x1="91.87" y1="126.84" x2="134.79" y2="59.13" xlink:href="#linear-gradient"/><linearGradient id="linear-gradient-3" x1="15.1" y1="58.71" x2="57.4" y2="127.25" xlink:href="#linear-gradient"/><linearGradient id="linear-gradient-4" x1="53.77" y1="82.26" x2="102.47" y2="52.83" gradientUnits="userSpaceOnUse"><stop offset="0" stop-color="#058ae5"/><stop offset="1" stop-color="#2d4bff"/></linearGradient></defs><title>Athens_Logo_FullBlack</title><path class="cls-1" d="M32.27,47.9q-.33,3.3-.33,6.69a66.19,66.19,0,0,0,42.94,62,66.2,66.2,0,0,0,42.93-62q0-3.39-.33-6.7a65.55,65.55,0,0,0-85.21,0Z"/><path class="cls-2" d="M74.88,32.16a65.41,65.41,0,0,1,42.6,15.73l25.24-13.38A92.69,92.69,0,0,0,7,34.51L32.27,47.9A65.41,65.41,0,0,1,74.88,32.16Z"/><path class="cls-3" d="M142.72,34.51,117.48,47.89q.33,3.3.33,6.7a66.2,66.2,0,0,1-42.93,62V145a93.2,93.2,0,0,0,70-90.41A93.91,93.91,0,0,0,142.72,34.51Z"/><path class="cls-4" d="M31.94,54.59q0-3.38.33-6.69L7,34.51A93.33,93.33,0,0,0,28,116.2,92.89,92.89,0,0,0,74.88,145V116.56A66.19,66.19,0,0,1,31.94,54.59Z"/><path class="cls-5" d="M74.88,45.74a52.13,52.13,0,0,1,28.71,8.64,1.52,1.52,0,0,1,.68,1.3,52.65,52.65,0,0,1-28.71,45.79,1.52,1.52,0,0,1-1.37,0A52.65,52.65,0,0,1,45.48,55.68a1.52,1.52,0,0,1,.68-1.3,52.13,52.13,0,0,1,28.72-8.64"/><path class="cls-6" d="M222.36,96.1H193.64l-4,12.82a10,10,0,0,1-9.54,7H169.85l26-75a10,10,0,0,1,9.45-6.72h13l28.43,81.73H235.93a10,10,0,0,1-9.54-7Zm-25-12.8h21.35L208.2,49.82h-.4Z"/><path class="cls-6" d="M280.32,55.21v7.46a5,5,0,0,1-5,5h-4.55v38.25a10,10,0,0,1-10,10h-6.54V67.67h-9.56V60.21a5,5,0,0,1,5-5h4.56v-11a10,10,0,0,1,10-10h6.54v21Z"/><path class="cls-6" d="M297.19,34.19h6.26V66.14h.34c3.4-7.76,9.86-11.84,19.09-11.84,13.48,0,21.18,8.72,21.18,22.77v28.86a10,10,0,0,1-10,10h-6.54V80.58c0-7.82-3.85-12.57-11.38-12.57-7.82,0-12.4,5.49-12.4,13.48v24.44a10,10,0,0,1-10,10h-6.54V44.19A10,10,0,0,1,297.19,34.19Z"/><path class="cls-6" d="M407.37,97.35c-1.81,11.84-12.8,19.65-27.7,19.65-18.58,0-29.91-11.84-29.91-31.15s11.38-31.72,29.28-31.72c17.62,0,28.83,11.72,28.83,30.19v0a5,5,0,0,1-5,5H366v1c0,8.55,5.61,14.39,13.93,14.39,4.3,0,8-1.48,10.26-4a9.74,9.74,0,0,1,7.22-3.39ZM366.2,79.22H392c-.34-7.76-5.44-12.86-12.74-12.86S366.76,71.63,366.2,79.22Z"/><path class="cls-6" d="M424.07,55.21h6V66.14h.34c3.46-7.76,9.63-11.84,19-11.84,13.48,0,21.07,8.5,21.07,22.71v28.91a10,10,0,0,1-10,10h-6.54V80.47c0-7.93-3.68-12.46-11.21-12.46s-12.06,5.44-12.06,13.37v24.55a10,10,0,0,1-10,10h-6.54V65.21A10,10,0,0,1,424.07,55.21Z"/><path class="cls-6" d="M476.36,110a10,10,0,0,1,2.15-6.19l28.1-35.62v-.34H476.81V65.21a10,10,0,0,1,10-10h39v7.1a10,10,0,0,1-2,6.07L497.38,103v.28h29.11v2.69a10,10,0,0,1-10,10H476.36Z"/></svg>