<?xml version="1.0" encoding="utf-8"?>
<!-- Generator: Adobe Illustrator 23.0.4, SVG Export Plug-In . SVG Version: 6.00 Build 0)  -->
<svg version="1.1" xmlns="http://www.w3.org/2000/svg" xmlns:xlink="http://www.w3.org/1999/xlink" x="0px" y="0px"
	 viewBox="0 0 371.2 307.2" style="enable-background:new 0 0 371.2 307.2;" xml:space="preserve">
<style type="text/css">
	.st0{fill:none;}
	.st1{fill:url(#SVGID_1_);}
	.st2{fill:url(#SVGID_2_);}
	.st3{fill:url(#SVGID_3_);}
	.st4{fill:url(#SVGID_4_);}
	.st5{fill:#303030;}
	.st6{fill:url(#SVGID_5_);}
	.st7{fill:url(#SVGID_6_);}
	.st8{fill:url(#SVGID_7_);}
	.st9{fill:url(#SVGID_8_);}
	.st10{fill:url(#SVGID_9_);}
	.st11{fill:url(#SVGID_10_);}
	.st12{fill:url(#SVGID_11_);}
	.st13{fill:url(#SVGID_12_);}
	.st14{fill:#FFFFFF;}
	.st15{fill:url(#SVGID_13_);}
	.st16{fill:url(#SVGID_14_);}
	.st17{fill:url(#SVGID_15_);}
	.st18{fill:url(#SVGID_16_);}
	.st19{fill:#058AE5;}
</style>
<g id="Layer_1">
	<g>
		<g>
			<path class="st0" d="M129.1,63.1c-0.3,2.9-0.4,5.9-0.4,8.9c0,37.6,23.7,69.8,57,82.2c33.2-12.4,57-44.6,57-82.2
				c0-3-0.1-6-0.4-8.9c-15.2-13-35-20.9-56.5-20.9C164.1,42.2,144.3,50,129.1,63.1z"/>
			<linearGradient id="SVGID_1_" gradientUnits="userSpaceOnUse" x1="241.6364" y1="34.5934" x2="128.0089" y2="34.5934">
				<stop  offset="1.021635e-03" style="stop-color:#2D4BFF"/>
				<stop  offset="0.9994" style="stop-color:#058AE5"/>
			</linearGradient>
			<path class="st1" d="M185.6,42.2c21.5,0,41.3,7.9,56.5,20.9l33.5-17.8c-15.6-16.7-35.7-29-58.4-35.1c-10.1-2.7-20.7-4.1-31.6-4.1
				c-10.9,0-21.5,1.4-31.7,4.1c-22.7,6-42.8,18.4-58.4,35.1l33.5,17.8C144.3,50,164.1,42.2,185.6,42.2z"/>
			<linearGradient id="SVGID_2_" gradientUnits="userSpaceOnUse" x1="208.1675" y1="167.8257" x2="265.1251" y2="77.9654">
				<stop  offset="1.021635e-03" style="stop-color:#2D4BFF"/>
				<stop  offset="0.9994" style="stop-color:#058AE5"/>
			</linearGradient>
			<path class="st2" d="M275.6,45.3L242.2,63c0.3,2.9,0.4,5.9,0.4,8.9c0,37.6-23.7,69.8-57,82.2v37.7c24.5-6.2,46-19.8,62.2-38.2
				c10.3-11.7,18.4-25.4,23.7-40.4c4.6-12.9,7-26.8,7-41.3C278.5,62.8,277.5,53.9,275.6,45.3z"/>
			<linearGradient id="SVGID_3_" gradientUnits="userSpaceOnUse" x1="106.2942" y1="77.406" x2="162.4233" y2="168.374">
				<stop  offset="1.021635e-03" style="stop-color:#2D4BFF"/>
				<stop  offset="0.9994" style="stop-color:#058AE5"/>
			</linearGradient>
			<path class="st3" d="M128.6,71.9c0-3,0.1-6,0.4-8.9L95.6,45.3c-1.9,8.6-2.9,17.5-2.9,26.6c0,14.5,2.5,28.4,7,41.3
				c5.3,15,13.4,28.7,23.7,40.4c16.2,18.4,37.7,32,62.2,38.2v-37.7C152.4,141.8,128.6,109.6,128.6,71.9z"/>
			<linearGradient id="SVGID_4_" gradientUnits="userSpaceOnUse" x1="157.6086" y1="108.6625" x2="222.2437" y2="69.6064">
				<stop  offset="6.410257e-04" style="stop-color:#058AE5"/>
				<stop  offset="0.999" style="stop-color:#2D4BFF"/>
			</linearGradient>
			<path class="st4" d="M185.6,60.2c13.6,0,26.8,4,38.1,11.5c0.6,0.4,0.9,1,0.9,1.7c-0.3,14-4.7,27.3-12.7,38.7
				c-6.6,9.4-15.3,16.9-25.4,22c-0.6,0.3-1.2,0.3-1.8,0c-10.1-5.1-18.8-12.6-25.4-22c-8-11.4-12.4-24.8-12.7-38.7
				c0-0.7,0.3-1.3,0.9-1.7C158.8,64.2,172,60.2,185.6,60.2"/>
		</g>
		<g>
			<path class="st5" d="M59.8,280.1H31.1l-4,12.8c-1.3,4.2-5.2,7-9.5,7H7.3l26-75c1.4-4,5.2-6.7,9.4-6.7h13L84.2,300H73.4
				c-4.4,0-8.2-2.8-9.5-7L59.8,280.1z M34.8,267.3h21.4l-10.5-33.5h-0.4L34.8,267.3z"/>
			<path class="st5" d="M117.8,239.2v7.5c0,2.8-2.2,5-5,5h-4.5v38.3c0,5.5-4.5,10-10,10h-6.5v-48.3h-9.6v-7.5c0-2.8,2.2-5,5-5h4.6
				v-11c0-5.5,4.5-10,10-10h6.5v21H117.8z"/>
			<path class="st5" d="M134.6,218.2h6.3v31.9h0.3c3.4-7.8,9.9-11.8,19.1-11.8c13.5,0,21.2,8.7,21.2,22.8V290c0,5.5-4.5,10-10,10
				H165v-35.3c0-7.8-3.9-12.6-11.4-12.6c-7.8,0-12.4,5.5-12.4,13.5V290c0,5.5-4.5,10-10,10h-6.5v-71.7
				C124.6,222.7,129.1,218.2,134.6,218.2z"/>
			<path class="st5" d="M244.8,281.4C243,293.2,232,301,217.1,301c-18.6,0-29.9-11.8-29.9-31.2c0-19.4,11.4-31.7,29.3-31.7
				c17.6,0,28.8,11.7,28.8,30.2v0c0,2.8-2.2,5-5,5h-36.9v1c0,8.6,5.6,14.4,13.9,14.4c4.3,0,8-1.5,10.3-4c1.9-2.1,4.4-3.4,7.2-3.4
				L244.8,281.4z M203.6,263.2h25.8c-0.3-7.8-5.4-12.9-12.7-12.9C209.5,250.4,204.2,255.7,203.6,263.2z"/>
			<path class="st5" d="M261.5,239.2h6v10.9h0.3c3.5-7.8,9.6-11.8,19-11.8c13.5,0,21.1,8.5,21.1,22.7V290c0,5.5-4.5,10-10,10h-6.5
				v-35.5c0-7.9-3.7-12.5-11.2-12.5c-7.5,0-12.1,5.4-12.1,13.4V290c0,5.5-4.5,10-10,10h-6.5v-50.7
				C251.5,243.7,256,239.2,261.5,239.2z"/>
			<path class="st5" d="M313.8,294c0-2.2,0.8-4.4,2.1-6.2l28.1-35.6v-0.3h-29.8v-2.6c0-5.5,4.5-10,10-10h39v7.1c0,2.2-0.7,4.3-2,6.1
				L334.8,287v0.3h29.1v2.7c0,5.5-4.5,10-10,10h-40.1V294z"/>
		</g>
	</g>
	<g>
		<g>
			<path class="st0" d="M-46.1-754.4c-0.2,2.2-0.3,4.4-0.3,6.7c0,28.4,17.9,52.6,42.9,62c25-9.4,42.9-33.6,42.9-62
				c0-2.3-0.1-4.5-0.3-6.7c-11.5-9.8-26.4-15.7-42.6-15.7C-19.8-770.1-34.7-764.2-46.1-754.4z"/>
			<linearGradient id="SVGID_5_" gradientUnits="userSpaceOnUse" x1="38.6711" y1="-775.8148" x2="-46.9496" y2="-775.8148">
				<stop  offset="1.021635e-03" style="stop-color:#2D4BFF"/>
				<stop  offset="0.9994" style="stop-color:#058AE5"/>
			</linearGradient>
			<path class="st6" d="M-3.5-770.1c16.2,0,31.1,5.9,42.6,15.7l25.2-13.4c-11.7-12.6-26.9-21.9-44-26.4c-7.6-2-15.6-3.1-23.8-3.1
				c-8.2,0-16.2,1.1-23.9,3.1c-17.1,4.5-32.3,13.8-44,26.4l25.2,13.4C-34.7-764.2-19.8-770.1-3.5-770.1z"/>
			<linearGradient id="SVGID_6_" gradientUnits="userSpaceOnUse" x1="13.4516" y1="-675.4216" x2="56.3702" y2="-743.1331">
				<stop  offset="1.021635e-03" style="stop-color:#2D4BFF"/>
				<stop  offset="0.9994" style="stop-color:#058AE5"/>
			</linearGradient>
			<path class="st7" d="M64.3-767.7l-25.2,13.4c0.2,2.2,0.3,4.4,0.3,6.7c0,28.4-17.9,52.6-42.9,62v28.4
				c18.4-4.7,34.7-14.9,46.8-28.8c7.8-8.8,13.9-19.1,17.9-30.5c3.4-9.7,5.3-20.2,5.3-31.2C66.5-754.6,65.7-761.3,64.3-767.7z"/>
			<linearGradient id="SVGID_7_" gradientUnits="userSpaceOnUse" x1="-63.3121" y1="-743.5546" x2="-21.0176" y2="-675.0084">
				<stop  offset="1.021635e-03" style="stop-color:#2D4BFF"/>
				<stop  offset="0.9994" style="stop-color:#058AE5"/>
			</linearGradient>
			<path class="st8" d="M-46.5-747.7c0-2.3,0.1-4.5,0.3-6.7l-25.2-13.4c-1.4,6.5-2.2,13.2-2.2,20.1c0,10.9,1.9,21.4,5.3,31.2
				c4,11.3,10.1,21.6,17.9,30.5C-38.2-672.2-22-662-3.5-657.3v-28.4C-28.6-695.1-46.5-719.3-46.5-747.7z"/>
			<linearGradient id="SVGID_8_" gradientUnits="userSpaceOnUse" x1="-24.6456" y1="-720.0023" x2="24.0582" y2="-749.4318">
				<stop  offset="6.410257e-04" style="stop-color:#058AE5"/>
				<stop  offset="0.999" style="stop-color:#2D4BFF"/>
			</linearGradient>
			<path class="st9" d="M-3.5-756.5c10.2,0,20.2,3,28.7,8.6c0.4,0.3,0.7,0.8,0.7,1.3c-0.2,10.5-3.5,20.6-9.6,29.2
				c-5,7.1-11.5,12.7-19.1,16.6c-0.4,0.2-0.9,0.2-1.4,0c-7.6-3.9-14.1-9.5-19.1-16.6c-6.1-8.6-9.4-18.7-9.6-29.2
				c0-0.5,0.2-1,0.7-1.3C-23.8-753.5-13.8-756.5-3.5-756.5"/>
		</g>
		<g>
			<path class="st5" d="M143.9-706.2h-28.7l-4,12.8c-1.3,4.2-5.2,7-9.5,7H91.4l26-75c1.4-4,5.2-6.7,9.4-6.7h13l28.4,81.7h-10.8
				c-4.4,0-8.2-2.8-9.5-7L143.9-706.2z M118.9-719h21.4l-10.5-33.5h-0.4L118.9-719z"/>
			<path class="st5" d="M201.9-747.1v7.5c0,2.8-2.2,5-5,5h-4.5v38.2c0,5.5-4.5,10-10,10h-6.5v-48.2h-9.6v-7.5c0-2.8,2.2-5,5-5h4.6
				v-11c0-5.5,4.5-10,10-10h6.5v21H201.9z"/>
			<path class="st5" d="M218.8-768.1h6.3v31.9h0.3c3.4-7.8,9.9-11.8,19.1-11.8c13.5,0,21.2,8.7,21.2,22.8v28.9c0,5.5-4.5,10-10,10
				h-6.5v-35.3c0-7.8-3.9-12.6-11.4-12.6c-7.8,0-12.4,5.5-12.4,13.5v24.4c0,5.5-4.5,10-10,10h-6.5v-71.7
				C208.8-763.6,213.3-768.1,218.8-768.1z"/>
			<path class="st5" d="M329-704.9c-1.8,11.8-12.8,19.7-27.7,19.7c-18.6,0-29.9-11.8-29.9-31.2c0-19.4,11.4-31.7,29.3-31.7
				c17.6,0,28.8,11.7,28.8,30.2v0c0,2.8-2.2,5-5,5h-36.9v1c0,8.6,5.6,14.4,13.9,14.4c4.3,0,8-1.5,10.3-4c1.9-2.1,4.4-3.4,7.2-3.4
				L329-704.9z M287.8-723h25.8c-0.3-7.8-5.4-12.9-12.7-12.9C293.6-735.9,288.3-730.6,287.8-723z"/>
			<path class="st5" d="M345.7-747.1h6v10.9h0.3c3.5-7.8,9.6-11.8,19-11.8c13.5,0,21.1,8.5,21.1,22.7v28.9c0,5.5-4.5,10-10,10h-6.5
				v-35.5c0-7.9-3.7-12.5-11.2-12.5c-7.5,0-12.1,5.4-12.1,13.4v24.6c0,5.5-4.5,10-10,10h-6.5v-50.7
				C335.7-742.6,340.1-747.1,345.7-747.1z"/>
			<path class="st5" d="M397.9-692.3c0-2.2,0.8-4.4,2.1-6.2l28.1-35.6v-0.3h-29.8v-2.6c0-5.5,4.5-10,10-10h39v7.1
				c0,2.2-0.7,4.3-2,6.1L419-699.3v0.3h29.1v2.7c0,5.5-4.5,10-10,10h-40.1V-692.3z"/>
		</g>
	</g>
	<g>
		<g>
			<path class="st0" d="M-46.1-566.9c-0.2,2.2-0.3,4.4-0.3,6.7c0,28.4,17.9,52.6,42.9,62c25-9.4,42.9-33.6,42.9-62
				c0-2.3-0.1-4.5-0.3-6.7c-11.5-9.8-26.4-15.7-42.6-15.7C-19.8-582.7-34.7-576.7-46.1-566.9z"/>
			<linearGradient id="SVGID_9_" gradientUnits="userSpaceOnUse" x1="38.6711" y1="-588.3622" x2="-46.9496" y2="-588.3622">
				<stop  offset="1.021635e-03" style="stop-color:#2D4BFF"/>
				<stop  offset="0.9994" style="stop-color:#058AE5"/>
			</linearGradient>
			<path class="st10" d="M-3.5-582.7c16.2,0,31.1,5.9,42.6,15.7l25.2-13.4c-11.7-12.6-26.9-21.9-44-26.4c-7.6-2-15.6-3.1-23.8-3.1
				c-8.2,0-16.2,1.1-23.9,3.1c-17.1,4.5-32.3,13.8-44,26.4l25.2,13.4C-34.7-576.7-19.8-582.7-3.5-582.7z"/>
			<linearGradient id="SVGID_10_" gradientUnits="userSpaceOnUse" x1="13.4516" y1="-487.969" x2="56.3702" y2="-555.6805">
				<stop  offset="1.021635e-03" style="stop-color:#2D4BFF"/>
				<stop  offset="0.9994" style="stop-color:#058AE5"/>
			</linearGradient>
			<path class="st11" d="M64.3-580.3l-25.2,13.4c0.2,2.2,0.3,4.4,0.3,6.7c0,28.4-17.9,52.6-42.9,62v28.4
				c18.4-4.7,34.7-14.9,46.8-28.8c7.8-8.8,13.9-19.1,17.9-30.5c3.4-9.7,5.3-20.2,5.3-31.2C66.5-567.1,65.7-573.8,64.3-580.3z"/>
			<linearGradient id="SVGID_11_" gradientUnits="userSpaceOnUse" x1="-63.3121" y1="-556.102" x2="-21.0176" y2="-487.5558">
				<stop  offset="1.021635e-03" style="stop-color:#2D4BFF"/>
				<stop  offset="0.9994" style="stop-color:#058AE5"/>
			</linearGradient>
			<path class="st12" d="M-46.5-560.2c0-2.3,0.1-4.5,0.3-6.7l-25.2-13.4c-1.4,6.5-2.2,13.2-2.2,20.1c0,10.9,1.9,21.4,5.3,31.2
				c4,11.3,10.1,21.6,17.9,30.5c12.2,13.9,28.4,24.1,46.8,28.8v-28.4C-28.6-507.6-46.5-531.9-46.5-560.2z"/>
			<linearGradient id="SVGID_12_" gradientUnits="userSpaceOnUse" x1="-24.6456" y1="-532.5496" x2="24.0582" y2="-561.9792">
				<stop  offset="6.410257e-04" style="stop-color:#058AE5"/>
				<stop  offset="0.999" style="stop-color:#2D4BFF"/>
			</linearGradient>
			<path class="st13" d="M-3.5-569.1c10.2,0,20.2,3,28.7,8.6c0.4,0.3,0.7,0.8,0.7,1.3c-0.2,10.5-3.5,20.6-9.6,29.2
				c-5,7.1-11.5,12.7-19.1,16.6c-0.4,0.2-0.9,0.2-1.4,0c-7.6-3.9-14.1-9.5-19.1-16.6c-6.1-8.6-9.4-18.7-9.6-29.2
				c0-0.5,0.2-1,0.7-1.3C-23.8-566-13.8-569.1-3.5-569.1"/>
		</g>
		<g>
			<path class="st14" d="M143.9-518.7h-28.7l-4,12.8c-1.3,4.2-5.2,7-9.5,7H91.4l26-75c1.4-4,5.2-6.7,9.4-6.7h13l28.4,81.7h-10.8
				c-4.4,0-8.2-2.8-9.5-7L143.9-518.7z M118.9-531.5h21.4L129.8-565h-0.4L118.9-531.5z"/>
			<path class="st14" d="M201.9-559.6v7.5c0,2.8-2.2,5-5,5h-4.5v38.2c0,5.5-4.5,10-10,10h-6.5v-48.2h-9.6v-7.5c0-2.8,2.2-5,5-5h4.6
				v-11c0-5.5,4.5-10,10-10h6.5v21H201.9z"/>
			<path class="st14" d="M218.8-580.6h6.3v31.9h0.3c3.4-7.8,9.9-11.8,19.1-11.8c13.5,0,21.2,8.7,21.2,22.8v28.9c0,5.5-4.5,10-10,10
				h-6.5v-35.3c0-7.8-3.9-12.6-11.4-12.6c-7.8,0-12.4,5.5-12.4,13.5v24.4c0,5.5-4.5,10-10,10h-6.5v-71.7
				C208.8-576.1,213.3-580.6,218.8-580.6z"/>
			<path class="st14" d="M329-517.5c-1.8,11.8-12.8,19.7-27.7,19.7c-18.6,0-29.9-11.8-29.9-31.2c0-19.4,11.4-31.7,29.3-31.7
				c17.6,0,28.8,11.7,28.8,30.2v0c0,2.8-2.2,5-5,5h-36.9v1c0,8.6,5.6,14.4,13.9,14.4c4.3,0,8-1.5,10.3-4c1.9-2.1,4.4-3.4,7.2-3.4
				H329z M287.8-535.6h25.8c-0.3-7.8-5.4-12.9-12.7-12.9C293.6-548.4,288.3-543.2,287.8-535.6z"/>
			<path class="st14" d="M345.7-559.6h6v10.9h0.3c3.5-7.8,9.6-11.8,19-11.8c13.5,0,21.1,8.5,21.1,22.7v28.9c0,5.5-4.5,10-10,10h-6.5
				v-35.5c0-7.9-3.7-12.5-11.2-12.5c-7.5,0-12.1,5.4-12.1,13.4v24.6c0,5.5-4.5,10-10,10h-6.5v-50.7
				C335.7-555.1,340.1-559.6,345.7-559.6z"/>
			<path class="st14" d="M397.9-504.8c0-2.2,0.8-4.4,2.1-6.2l28.1-35.6v-0.3h-29.8v-2.6c0-5.5,4.5-10,10-10h39v7.1
				c0,2.2-0.7,4.3-2,6.1L419-511.9v0.3h29.1v2.7c0,5.5-4.5,10-10,10h-40.1V-504.8z"/>
		</g>
	</g>
	<g>
		<g>
			<path class="st5" d="M64.3-392.3c-11.7-12.6-26.9-21.9-44-26.4c-7.6-2-15.6-3.1-23.8-3.1c-8.2,0-16.2,1.1-23.9,3.1
				c-17.1,4.5-32.2,13.8-44,26.4c-1.4,6.5-2.2,13.2-2.2,20.1c0,10.9,1.9,21.4,5.3,31.2c4,11.3,10.1,21.6,17.9,30.5
				c12.2,13.9,28.4,24.1,46.8,28.8c18.4-4.7,34.7-14.9,46.8-28.8c7.8-8.8,13.9-19.1,17.9-30.5c3.4-9.7,5.3-20.2,5.3-31.2
				C66.5-379.1,65.7-385.8,64.3-392.3z M-3.5-310.3c-25-9.3-42.9-33.6-42.9-62c0-2.2,0.1-4.5,0.3-6.7c11.5-9.8,26.4-15.7,42.6-15.7
				s31.1,5.9,42.6,15.7c0.2,2.2,0.3,4.4,0.3,6.7C39.4-343.9,21.5-319.6-3.5-310.3z"/>
			<path class="st5" d="M-3.5-381.1c10.2,0,20.2,3,28.7,8.6c0.4,0.3,0.7,0.8,0.7,1.3c-0.2,10.5-3.5,20.6-9.6,29.2
				c-5,7.1-11.5,12.7-19.1,16.6c-0.4,0.2-0.9,0.2-1.4,0c-7.6-3.9-14.1-9.5-19.1-16.6c-6.1-8.6-9.4-18.7-9.6-29.2
				c0-0.5,0.2-1,0.7-1.3C-23.8-378-13.8-381.1-3.5-381.1L-3.5-381.1z"/>
		</g>
		<g>
			<path class="st5" d="M143.9-330.7h-28.7l-4,12.8c-1.3,4.2-5.2,7-9.5,7H91.4l26-75c1.4-4,5.2-6.7,9.4-6.7h13l28.4,81.7h-10.8
				c-4.4,0-8.2-2.8-9.5-7L143.9-330.7z M118.9-343.5h21.4L129.8-377h-0.4L118.9-343.5z"/>
			<path class="st5" d="M201.9-371.6v7.5c0,2.8-2.2,5-5,5h-4.5v38.2c0,5.5-4.5,10-10,10h-6.5v-48.2h-9.6v-7.5c0-2.8,2.2-5,5-5h4.6
				v-11c0-5.5,4.5-10,10-10h6.5v21H201.9z"/>
			<path class="st5" d="M218.8-392.6h6.3v31.9h0.3c3.4-7.8,9.9-11.8,19.1-11.8c13.5,0,21.2,8.7,21.2,22.8v28.9c0,5.5-4.5,10-10,10
				h-6.5v-35.3c0-7.8-3.9-12.6-11.4-12.6c-7.8,0-12.4,5.5-12.4,13.5v24.4c0,5.5-4.5,10-10,10h-6.5v-71.7
				C208.8-388.1,213.3-392.6,218.8-392.6z"/>
			<path class="st5" d="M329-329.5c-1.8,11.8-12.8,19.7-27.7,19.7c-18.6,0-29.9-11.8-29.9-31.2c0-19.4,11.4-31.7,29.3-31.7
				c17.6,0,28.8,11.7,28.8,30.2v0c0,2.8-2.2,5-5,5h-36.9v1c0,8.6,5.6,14.4,13.9,14.4c4.3,0,8-1.5,10.3-4c1.9-2.1,4.4-3.4,7.2-3.4
				L329-329.5z M287.8-347.6h25.8c-0.3-7.8-5.4-12.9-12.7-12.9C293.6-360.4,288.3-355.2,287.8-347.6z"/>
			<path class="st5" d="M345.7-371.6h6v10.9h0.3c3.5-7.8,9.6-11.8,19-11.8c13.5,0,21.1,8.5,21.1,22.7v28.9c0,5.5-4.5,10-10,10h-6.5
				v-35.5c0-7.9-3.7-12.5-11.2-12.5c-7.5,0-12.1,5.4-12.1,13.4v24.6c0,5.5-4.5,10-10,10h-6.5v-50.7
				C335.7-367.1,340.1-371.6,345.7-371.6z"/>
			<path class="st5" d="M397.9-316.8c0-2.2,0.8-4.4,2.1-6.2l28.1-35.6v-0.3h-29.8v-2.6c0-5.5,4.5-10,10-10h39v7.1
				c0,2.2-0.7,4.3-2,6.1L419-323.9v0.3h29.1v2.7c0,5.5-4.5,10-10,10h-40.1V-316.8z"/>
		</g>
	</g>
	<g>
		<g>
			<path class="st14" d="M64.3-192.3c-11.7-12.6-26.9-21.9-44-26.4c-7.6-2-15.6-3.1-23.8-3.1c-8.2,0-16.2,1.1-23.9,3.1
				c-17.1,4.5-32.2,13.8-44,26.4c-1.4,6.5-2.2,13.2-2.2,20.1c0,10.9,1.9,21.4,5.3,31.2c4,11.3,10.1,21.6,17.9,30.5
				C-38.2-96.7-22-86.5-3.5-81.8c18.4-4.7,34.7-14.9,46.8-28.8c7.8-8.8,13.9-19.1,17.9-30.5c3.4-9.7,5.3-20.2,5.3-31.2
				C66.5-179.1,65.7-185.8,64.3-192.3z M-3.5-110.3c-25-9.4-42.9-33.6-42.9-62c0-2.2,0.1-4.5,0.3-6.7c11.5-9.8,26.4-15.7,42.6-15.7
				c16.2,0,31.1,5.9,42.6,15.7c0.2,2.2,0.3,4.4,0.3,6.7C39.4-143.9,21.5-119.6-3.5-110.3z"/>
			<path class="st14" d="M-3.5-181.1c10.2,0,20.2,3,28.7,8.6c0.4,0.3,0.7,0.8,0.7,1.3c-0.2,10.5-3.5,20.6-9.6,29.2
				c-5,7.1-11.5,12.7-19.1,16.6c-0.4,0.2-0.9,0.2-1.4,0c-7.6-3.9-14.1-9.5-19.1-16.6c-6.1-8.6-9.4-18.7-9.6-29.2
				c0-0.5,0.2-1,0.7-1.3C-23.8-178-13.8-181.1-3.5-181.1L-3.5-181.1z"/>
		</g>
		<g>
			<path class="st14" d="M143.9-130.7h-28.7l-4,12.8c-1.3,4.2-5.2,7-9.5,7H91.4l26-75c1.4-4,5.2-6.7,9.4-6.7h13l28.4,81.7h-10.8
				c-4.4,0-8.2-2.8-9.5-7L143.9-130.7z M118.9-143.5h21.4L129.8-177h-0.4L118.9-143.5z"/>
			<path class="st14" d="M201.9-171.6v7.5c0,2.8-2.2,5-5,5h-4.5v38.2c0,5.5-4.5,10-10,10h-6.5v-48.2h-9.6v-7.5c0-2.8,2.2-5,5-5h4.6
				v-11c0-5.5,4.5-10,10-10h6.5v21H201.9z"/>
			<path class="st14" d="M218.8-192.6h6.3v31.9h0.3c3.4-7.8,9.9-11.8,19.1-11.8c13.5,0,21.2,8.7,21.2,22.8v28.9c0,5.5-4.5,10-10,10
				h-6.5v-35.3c0-7.8-3.9-12.6-11.4-12.6c-7.8,0-12.4,5.5-12.4,13.5v24.4c0,5.5-4.5,10-10,10h-6.5v-71.7
				C208.8-188.1,213.3-192.6,218.8-192.6z"/>
			<path class="st14" d="M329-129.5c-1.8,11.8-12.8,19.7-27.7,19.7c-18.6,0-29.9-11.8-29.9-31.2c0-19.4,11.4-31.7,29.3-31.7
				c17.6,0,28.8,11.7,28.8,30.2v0c0,2.8-2.2,5-5,5h-36.9v1c0,8.6,5.6,14.4,13.9,14.4c4.3,0,8-1.5,10.3-4c1.9-2.1,4.4-3.4,7.2-3.4
				L329-129.5z M287.8-147.6h25.8c-0.3-7.8-5.4-12.9-12.7-12.9C293.6-160.4,288.3-155.2,287.8-147.6z"/>
			<path class="st14" d="M345.7-171.6h6v10.9h0.3c3.5-7.8,9.6-11.8,19-11.8c13.5,0,21.1,8.5,21.1,22.7v28.9c0,5.5-4.5,10-10,10h-6.5
				v-35.5c0-7.9-3.7-12.5-11.2-12.5c-7.5,0-12.1,5.4-12.1,13.4v24.6c0,5.5-4.5,10-10,10h-6.5v-50.7
				C335.7-167.1,340.1-171.6,345.7-171.6z"/>
			<path class="st14" d="M397.9-116.8c0-2.2,0.8-4.4,2.1-6.2l28.1-35.6v-0.3h-29.8v-2.6c0-5.5,4.5-10,10-10h39v7.1
				c0,2.2-0.7,4.3-2,6.1L419-123.9v0.3h29.1v2.7c0,5.5-4.5,10-10,10h-40.1V-116.8z"/>
		</g>
	</g>
	<g>
		<path class="st0" d="M1005.4-753.8c-0.2,2.2-0.3,4.4-0.3,6.7c0,28.4,17.9,52.6,42.9,62c25-9.4,42.9-33.6,42.9-62
			c0-2.3-0.1-4.5-0.3-6.7c-11.5-9.8-26.4-15.7-42.6-15.7S1016.9-763.6,1005.4-753.8z"/>
		<linearGradient id="SVGID_13_" gradientUnits="userSpaceOnUse" x1="1090.2454" y1="-775.2675" x2="1004.6248" y2="-775.2675">
			<stop  offset="1.021635e-03" style="stop-color:#2D4BFF"/>
			<stop  offset="0.9994" style="stop-color:#058AE5"/>
		</linearGradient>
		<path class="st15" d="M1048-769.6c16.2,0,31.1,5.9,42.6,15.7l25.2-13.4c-11.7-12.6-26.9-21.9-44-26.4c-7.6-2-15.6-3.1-23.8-3.1
			c-8.2,0-16.2,1.1-23.9,3.1c-17.1,4.5-32.3,13.8-44,26.4l25.2,13.4C1016.9-763.6,1031.8-769.6,1048-769.6z"/>
		<linearGradient id="SVGID_14_" gradientUnits="userSpaceOnUse" x1="1065.0259" y1="-674.8743" x2="1107.9446" y2="-742.5858">
			<stop  offset="1.021635e-03" style="stop-color:#2D4BFF"/>
			<stop  offset="0.9994" style="stop-color:#058AE5"/>
		</linearGradient>
		<path class="st16" d="M1115.9-767.2l-25.2,13.4c0.2,2.2,0.3,4.4,0.3,6.7c0,28.4-17.9,52.6-42.9,62v28.4
			c18.4-4.7,34.7-14.9,46.8-28.8c7.8-8.8,13.9-19.1,17.9-30.5c3.4-9.7,5.3-20.2,5.3-31.2C1118-754,1117.3-760.7,1115.9-767.2z"/>
		<linearGradient id="SVGID_15_" gradientUnits="userSpaceOnUse" x1="988.2622" y1="-743.0073" x2="1030.5566" y2="-674.4611">
			<stop  offset="1.021635e-03" style="stop-color:#2D4BFF"/>
			<stop  offset="0.9994" style="stop-color:#058AE5"/>
		</linearGradient>
		<path class="st17" d="M1005.1-747.1c0-2.3,0.1-4.5,0.3-6.7l-25.2-13.4c-1.4,6.5-2.2,13.2-2.2,20.1c0,10.9,1.9,21.4,5.3,31.2
			c4,11.3,10.1,21.6,17.9,30.5c12.2,13.9,28.4,24.1,46.8,28.8v-28.4C1023-694.5,1005.1-718.8,1005.1-747.1z"/>
		<linearGradient id="SVGID_16_" gradientUnits="userSpaceOnUse" x1="1026.9287" y1="-719.4549" x2="1075.6326" y2="-748.8845">
			<stop  offset="6.410257e-04" style="stop-color:#058AE5"/>
			<stop  offset="0.999" style="stop-color:#2D4BFF"/>
		</linearGradient>
		<path class="st18" d="M1048-756c10.2,0,20.2,3,28.7,8.6c0.4,0.3,0.7,0.8,0.7,1.3c-0.2,10.5-3.5,20.6-9.6,29.2
			c-5,7.1-11.5,12.7-19.1,16.6c-0.4,0.2-0.9,0.2-1.4,0c-7.6-3.9-14.1-9.5-19.1-16.6c-6.1-8.6-9.4-18.7-9.6-29.2c0-0.5,0.2-1,0.7-1.3
			C1027.8-752.9,1037.8-756,1048-756"/>
	</g>
	<g>
		<path class="st5" d="M1112.9-580.2c-11.7-12.6-26.9-21.9-44-26.4c-7.6-2-15.6-3.1-23.8-3.1c-8.2,0-16.2,1.1-23.9,3.1
			c-17.1,4.5-32.2,13.8-44,26.4c-1.4,6.5-2.2,13.2-2.2,20.1c0,10.9,1.9,21.4,5.3,31.2c4,11.3,10.1,21.6,17.9,30.5
			c12.2,13.9,28.4,24.1,46.8,28.8c18.4-4.7,34.7-14.9,46.8-28.8c7.8-8.8,13.9-19.1,17.9-30.5c3.4-9.7,5.3-20.2,5.3-31.2
			C1115-567,1114.3-573.7,1112.9-580.2z M1045-498.2c-25-9.3-42.9-33.6-42.9-62c0-2.2,0.1-4.5,0.3-6.7c11.5-9.8,26.4-15.7,42.6-15.7
			s31.1,5.9,42.6,15.7c0.2,2.2,0.3,4.4,0.3,6.7C1088-531.8,1070.1-507.5,1045-498.2z"/>
		<path class="st5" d="M1045-569c10.2,0,20.2,3,28.7,8.6c0.4,0.3,0.7,0.8,0.7,1.3c-0.2,10.5-3.5,20.6-9.6,29.2
			c-5,7.1-11.5,12.7-19.1,16.6c-0.4,0.2-0.9,0.2-1.4,0c-7.6-3.9-14.1-9.5-19.1-16.6c-6.1-8.6-9.4-18.7-9.6-29.2c0-0.5,0.2-1,0.7-1.3
			C1024.8-565.9,1034.8-569,1045-569L1045-569z"/>
	</g>
	<g>
		<path class="st14" d="M1115.9-392.2c-11.7-12.6-26.9-21.9-44-26.4c-7.6-2-15.6-3.1-23.8-3.1c-8.2,0-16.2,1.1-23.9,3.1
			c-17.1,4.5-32.2,13.8-44,26.4c-1.4,6.5-2.2,13.2-2.2,20.1c0,10.9,1.9,21.4,5.3,31.2c4,11.3,10.1,21.6,17.9,30.5
			c12.2,13.9,28.4,24.1,46.8,28.8c18.4-4.7,34.7-14.9,46.8-28.8c7.8-8.8,13.9-19.1,17.9-30.5c3.4-9.7,5.3-20.2,5.3-31.2
			C1118-379,1117.3-385.7,1115.9-392.2z M1048-310.2c-25-9.3-42.9-33.6-42.9-62c0-2.2,0.1-4.5,0.3-6.7c11.5-9.8,26.4-15.7,42.6-15.7
			s31.1,5.9,42.6,15.7c0.2,2.2,0.3,4.4,0.3,6.7C1091-343.8,1073.1-319.5,1048-310.2z"/>
		<path class="st14" d="M1048-381c10.2,0,20.2,3,28.7,8.6c0.4,0.3,0.7,0.8,0.7,1.3c-0.2,10.5-3.5,20.6-9.6,29.2
			c-5,7.1-11.5,12.7-19.1,16.6c-0.4,0.2-0.9,0.2-1.4,0c-7.6-3.9-14.1-9.5-19.1-16.6c-6.1-8.6-9.4-18.7-9.6-29.2c0-0.5,0.2-1,0.7-1.3
			C1027.8-377.9,1037.8-381,1048-381L1048-381z"/>
	</g>
	<g>
		<path class="st14" d="M1321-374.2c-8.9,0-17,3.2-23.3,8.6c-0.1,1.2-0.2,2.4-0.2,3.7c0,15.5,9.8,28.8,23.5,33.9
			c13.7-5.1,23.5-18.4,23.5-33.9c0-1.2-0.1-2.5-0.2-3.7C1338-371,1329.9-374.2,1321-374.2z M1331.9-345.4c-2.7,3.9-6.3,7-10.5,9.1
			c-0.2,0.1-0.5,0.1-0.7,0c-4.2-2.1-7.7-5.2-10.5-9.1c-3.3-4.7-5.1-10.2-5.2-15.9c0-0.3,0.1-0.6,0.4-0.7c4.6-3.1,10.1-4.7,15.7-4.7
			c5.6,0,11.1,1.7,15.7,4.7c0.2,0.2,0.4,0.4,0.4,0.7C1337-355.6,1335.2-350.1,1331.9-345.4z"/>
		<path class="st14" d="M1321-421.7c-38.7,0-70,31.3-70,70s31.3,70,70,70c38.7,0,70-31.3,70-70S1359.7-421.7,1321-421.7z
			 M1356.4-344.9c-2.2,6.2-5.5,11.8-9.8,16.6c-6.7,7.6-15.5,13.2-25.6,15.7c-10.1-2.6-19-8.1-25.6-15.7c-4.2-4.8-7.6-10.5-9.8-16.6
			c-1.9-5.3-2.9-11.1-2.9-17c0-3.8,0.4-7.5,1.2-11c6.4-6.9,14.7-12,24.1-14.5c4.2-1.1,8.5-1.7,13-1.7c4.5,0,8.9,0.6,13,1.7
			c9.3,2.5,17.6,7.6,24,14.5c0.8,3.5,1.2,7.2,1.2,11C1359.3-355.9,1358.3-350.2,1356.4-344.9z"/>
	</g>
	<g>
		<path class="st5" d="M1317.5-562.6c-8.8,0.7-16.7,4.5-22.6,10.3c0,1.2,0,2.4,0.1,3.7c1.1,15.5,11.9,28,25.9,32.1
			c13.3-6.1,22.1-20,20.9-35.5c-0.1-1.2-0.2-2.5-0.5-3.6C1334.7-560.6,1326.3-563.2,1317.5-562.6z M1330.4-534.6
			c-2.4,4.1-5.8,7.4-9.8,9.8c-0.2,0.1-0.5,0.2-0.7,0.1c-4.3-1.8-8.1-4.6-11.1-8.3c-3.7-4.4-5.9-9.8-6.4-15.5c0-0.3,0.1-0.6,0.3-0.7
			c4.4-3.4,9.7-5.5,15.3-5.9c5.6-0.4,11.1,0.8,16,3.6c0.2,0.1,0.4,0.4,0.4,0.7C1334.8-545.2,1333.4-539.6,1330.4-534.6z"/>
		<path class="st5" d="M1314-610c-38.6,2.8-67.5,36.4-64.7,75c2.8,38.6,36.4,67.5,75,64.7s67.5-36.4,64.7-75
			C1386.1-583.9,1352.5-612.8,1314-610z M1354.9-535.9c-1.7,6.3-4.6,12.2-8.5,17.3c-6.1,8.1-14.5,14.3-24.4,17.6
			c-10.2-1.8-19.5-6.7-26.7-13.8c-4.6-4.5-8.3-9.9-11-15.9c-2.3-5.2-3.7-10.8-4.1-16.8c-0.3-3.8-0.2-7.5,0.4-11
			c5.9-7.3,13.8-13,22.9-16.2c4.1-1.4,8.4-2.3,12.9-2.7c4.5-0.3,8.9-0.1,13.1,0.7c9.5,1.8,18.1,6.2,25,12.6c1,3.4,1.7,7.1,2,10.9
			C1357-547.2,1356.4-541.4,1354.9-535.9z"/>
	</g>
	<g>
		<path class="st19" d="M1321-750.2c-8.9,0-17,3.2-23.3,8.6c-0.1,1.2-0.2,2.4-0.2,3.7c0,15.5,9.8,28.8,23.5,33.9
			c13.7-5.1,23.5-18.4,23.5-33.9c0-1.2-0.1-2.5-0.2-3.7C1338-747,1329.9-750.2,1321-750.2z M1331.9-721.4c-2.7,3.9-6.3,7-10.5,9.1
			c-0.2,0.1-0.5,0.1-0.7,0c-4.2-2.1-7.7-5.2-10.5-9.1c-3.3-4.7-5.1-10.2-5.2-15.9c0-0.3,0.1-0.6,0.4-0.7c4.6-3.1,10.1-4.7,15.7-4.7
			c5.6,0,11.1,1.7,15.7,4.7c0.2,0.2,0.4,0.4,0.4,0.7C1337-731.6,1335.2-726.1,1331.9-721.4z"/>
		<path class="st19" d="M1321-797.7c-38.7,0-70,31.3-70,70c0,38.7,31.3,70,70,70c38.7,0,70-31.3,70-70
			C1391-766.4,1359.7-797.7,1321-797.7z M1356.4-720.9c-2.2,6.2-5.5,11.8-9.8,16.6c-6.7,7.6-15.5,13.2-25.6,15.7
			c-10.1-2.6-19-8.1-25.6-15.7c-4.2-4.8-7.6-10.5-9.8-16.6c-1.9-5.3-2.9-11.1-2.9-17c0-3.8,0.4-7.5,1.2-11
			c6.4-6.9,14.7-12,24.1-14.5c4.2-1.1,8.5-1.7,13-1.7c4.5,0,8.9,0.6,13,1.7c9.3,2.5,17.6,7.6,24,14.5c0.8,3.5,1.2,7.2,1.2,11
			C1359.3-731.9,1358.3-726.2,1356.4-720.9z"/>
	</g>
</g>
<g id="Layer_2">
</g>
</svg>
